<!-- <svg xmlns="http://www.w3.org/2000/svg" viewBox="0 0 59 63.99">
  <title>interview</title>
  <g id="Layer_2" data-name="Layer 2">
    <g id="interview">
      <path
d="M53.63,27.72a1,1,0,0,0-1-.8H44c-.56-4.17-3.2-7.22-7.54-8.79a7.59,7.59,0,0,0,1.94-4.93V8.73a8.46,8.46,0,0,0-6-8.15c-2.89-1-5.84-.66-7.34.85-3.2.77-4.65,4.4-4.65,6.83V13.2a7.61,7.61,0,0,0,2,4.94c-4.3,1.64-6.77,4.58-7.37,8.77H6.35a1,1,0,0,0-1,.8L0,53.78A1,1,0,0,0,1,55H15.06a11,11,0,0,0-1.68,5.86,1,1,0,0,0,.7,1A50.2,50.2,0,0,0,29,64a50.17,50.17,0,0,0,15-2.17,1,1,0,0,0,.7-1A10.51,10.51,0,0,0,43,55H58a1,1,0,0,0,1-1.2ZM42,26.92H33.44L32.15,21a9.7,9.7,0,0,0,2.43-1.16l.18-.14C39,20.86,41.41,23.29,42,26.92ZM22.44,13.2v-2h.77a3.69,3.69,0,0,0,3.53-2,5,5,0,0,0,4.45,2h5.25v2a6.12,6.12,0,0,1-3,5,7.32,7.32,0,0,1-4,1.26h0a7.05,7.05,0,0,1-1.33-.14h0C25,18.64,22.44,16,22.44,13.2Zm7,8.21h0c.23,0,.47,0,.7-.06l1.21,5.56h-3.8l1.1-5.54C28.94,21.39,29.19,21.41,29.43,21.41Zm-7-13.16c0-1.52,1-4.54,3.33-4.93A1,1,0,0,0,26.38,3c.84-1,3.2-1.27,5.38-.5a6.66,6.66,0,0,1,4.68,6.26V9.2H31.19c-2.07,0-2.53-.56-3.66-2.3a1,1,0,0,0-.84-.46h0a1,1,0,0,0-.84.46l-.39.61C24.53,9,24.41,9.18,23.19,9.19h-.75Zm1.65,11.42A9.61,9.61,0,0,0,26.74,21l-1.18,5.93H17C17.65,23.28,19.91,21,24.08,19.67ZM15.41,60.14a8.23,8.23,0,0,1,2.43-5.45h0a12.37,12.37,0,0,1,5.38-2.83,10.55,10.55,0,0,0,5.72,1.75h0A10.47,10.47,0,0,0,34.42,52l.26-.18c3.59.92,7.65,3.1,8,8.27A50.9,50.9,0,0,1,15.41,60.14Zm5.9-19.67h0c0-1.41.83-4.46,3.67-4.9a1,1,0,0,0,.6-.33,4.12,4.12,0,0,1,3.06-1,9.42,9.42,0,0,1,3.23.59c1.41.53,4.68,2.18,4.68,6.11V43.8c-4.85,2.83-12.19,2-15.21,0Zm7.51,7.21a18.38,18.38,0,0,0,7.67-1.59,6.33,6.33,0,0,1-3.13,4.26A8.44,8.44,0,0,1,29,51.62h0c-3.66,0-7-2.52-7.53-5.42A17.77,17.77,0,0,0,28.83,47.68ZM41.29,53a13.67,13.67,0,0,0-4.8-2.66,7.31,7.31,0,0,0,2.06-4.91V41c0-3.6-2.24-6.58-6-8-3.18-1.19-6.56-.89-8.24.68-3.53.75-5.06,4.4-5,6.84l0,4.93a7.33,7.33,0,0,0,2.07,4.93A13.78,13.78,0,0,0,16.77,53H2.23L7.17,28.92H51.83L56.77,53Z"
/>
    </g>
  </g>
</svg> -->
<svg xmlns="http://www.w3.org/2000/svg" viewBox="0 0 140 140">
  <title>interview</title>
  <g id="Layer_2" data-name="Layer 2">
    <g id="interview" fill="#272727">
      <path fill-rule="evenodd" clip-rule="evenodd"
        d="M0 0h140v140H0V0Zm34.996 72.61c0-5.785-4.713-10.497-10.498-10.497C18.713 62.113 14 66.825 14 72.61v34.992h20.996V72.611Zm69.986 0v20.996H83.987l-27.995 27.995a9.896 9.896 0 0 0 13.997 0l13.998-13.997v27.994c5.785 0 10.497-4.713 10.497-10.498v-17.496h31.494V72.611c0-5.785-4.713-10.498-10.498-10.498-5.785 0-10.498 4.713-10.498 10.498Zm19.274-24.495a8.748 8.748 0 1 1-17.497 0 8.748 8.748 0 0 1 17.497 0Zm-99.644 8.749a8.748 8.748 0 1 0 0-17.497 8.748 8.748 0 0 0 0 17.497Zm17.382 23.455h55.99V78.9h-55.99v1.42Z"
        class="f"></path>
    </g>
  </g>
</svg>
