<svg id="te-135d671e-054aafa8-8b783bbf" data-name="Layer 2" xmlns="http://www.w3.org/2000/svg"
  viewBox="0 0 49.606 49.606" fill="#272727">
  <path
    d="M0 0v49.606h49.606V0H0Zm38.445 21.703a3.1 3.1 0 1 1 0 6.2 3.1 3.1 0 0 1 0-6.2Zm-13.642 0a3.1 3.1 0 1 1 0 6.2 3.1 3.1 0 0 1 0-6.2Zm-13.642 0a3.1 3.1 0 1 1 0 6.2 3.1 3.1 0 0 1 0-6.2Zm8.061 22.322a2.48 2.48 0 0 1-2.48 2.48v-12.4h-1.24v12.4H6.82v-12.4H5.58v12.4a2.48 2.48 0 0 1-2.48-2.48v-9.92a3.72 3.72 0 0 1 3.72-3.721h8.68a3.72 3.72 0 0 1 3.721 3.72v9.921Zm13.642 0a2.48 2.48 0 0 1-2.48 2.48v-12.4h-1.24v12.4h-8.682V30.385h8.681a3.72 3.72 0 0 1 3.72 3.72v9.921Zm13.642 0a2.48 2.48 0 0 1-2.48 2.48v-12.4h-1.24v12.4h-8.682V30.385h8.681a3.72 3.72 0 0 1 3.72 3.72v9.921Z"
    id="a5e8f1c719f4c0f9__artwork" class="f"></path>
</svg>
