<svg fill="none" xmlns="http://www.w3.org/2000/svg" viewBox="0 0 140 140"
  id="te-d13dd0ee-46232655-dea72a66">
  <g clip-path="url(#clip0_2949_536)" fill="#272727">
    <path
      d="M0 0v140h140V0H0Zm79.731 37.86V27.435h2.425c.666 0 1.205.54 1.205 1.206v9.219c0 .665-.54 1.206-1.205 1.206H79.73V37.86Zm-20.35-13.796c.061-.32.166-.705.318-1.154.143-.428.333-.899.573-1.406a10.83 10.83 0 0 1 .91-1.563c.372-.534.807-1.05 1.3-1.53a9.07 9.07 0 0 1 1.764-1.333 9.647 9.647 0 0 1 2.244-.924c1.675-.457 3.889-.457 5.559 0 .824.23 1.579.538 2.243.924a9.145 9.145 0 0 1 1.767 1.334c.493.48.929.995 1.3 1.53.367.526.67 1.046.91 1.565.237.501.427.97.573 1.402.15.453.254.835.315 1.155.074.375.102.637.102.783h-1l-1.001.008a3.332 3.332 0 0 0-.064-.41 8.028 8.028 0 0 0-.248-.902 12.458 12.458 0 0 0-.488-1.19 8.96 8.96 0 0 0-.74-1.27c-.301-.43-.654-.85-1.054-1.238a7.054 7.054 0 0 0-1.375-1.037 7.477 7.477 0 0 0-1.772-.724c-1.323-.37-3.167-.37-4.495 0a7.769 7.769 0 0 0-1.775.724 7.044 7.044 0 0 0-1.37 1.037 8.885 8.885 0 0 0-1.797 2.508c-.201.43-.364.824-.485 1.19a7.694 7.694 0 0 0-.25.902c-.037.19-.062.325-.064.41l-2.001-.008c0-.146.027-.408.102-.783Zm18.647 9.532a8.75 8.75 0 1 1-17.5 0 8.75 8.75 0 0 1 17.5 0Zm-22.815-4.955c0-.666.54-1.206 1.205-1.206h2.425v11.63h-2.425c-.666 0-1.205-.54-1.205-1.205v-9.22ZM44.978 63.464 57.39 51.05v.145l.935-.933a7.528 7.528 0 0 1 5.322-2.203H75.63c1.996 0 3.91.792 5.322 2.203l.935.933v-.145L94.3 63.464a8.775 8.775 0 0 1 0 12.41l-4.626 4.627h-40.07l-4.626-4.627a8.775 8.775 0 0 1 0-12.41ZM133 133H7V84h126v49Z"></path>
    <path
      d="m57.03 63.826-5.845 5.843 5.844 5.843V63.826ZM82.252 63.826v11.686l5.844-5.843-5.844-5.843ZM17.498 112.25a1.75 1.75 0 0 0 1.75-1.75V93a1.75 1.75 0 0 0-3.5 0v17.5c0 .966.784 1.75 1.75 1.75ZM17.498 124.5a1.75 1.75 0 1 0 .001-3.499 1.75 1.75 0 0 0 0 3.499ZM17.498 117.739a1.75 1.75 0 1 0-.001-3.501 1.75 1.75 0 0 0 .001 3.501ZM24.5 112.25a1.75 1.75 0 0 0 1.75-1.75V93a1.75 1.75 0 0 0-3.5 0v17.5c0 .966.783 1.75 1.75 1.75ZM24.5 124.5a1.75 1.75 0 1 0 .001-3.499 1.75 1.75 0 0 0-.001 3.499ZM24.5 117.739a1.75 1.75 0 1 0 0-3.501 1.75 1.75 0 0 0 0 3.501ZM31.5 124.5a1.75 1.75 0 1 0 .001-3.499 1.75 1.75 0 0 0 0 3.499ZM31.5 117.739a1.75 1.75 0 1 0-.001-3.501 1.75 1.75 0 0 0 .001 3.501ZM31.5 112.25a1.75 1.75 0 0 0 1.75-1.75V93a1.75 1.75 0 0 0-3.5 0v17.5c0 .966.784 1.75 1.75 1.75ZM38.5 124.5a1.75 1.75 0 1 0 .001-3.499 1.75 1.75 0 0 0 0 3.499ZM38.5 117.739a1.75 1.75 0 1 0-.001-3.5 1.75 1.75 0 0 0 .001 3.5ZM38.5 112.25a1.75 1.75 0 0 0 1.75-1.75V93a1.75 1.75 0 0 0-3.5 0v17.5c0 .966.784 1.75 1.75 1.75ZM45.5 124.5a1.75 1.75 0 1 0 .001-3.499 1.75 1.75 0 0 0-.001 3.499ZM45.5 117.739a1.75 1.75 0 1 0-.001-3.501 1.75 1.75 0 0 0 0 3.501ZM45.5 112.25a1.75 1.75 0 0 0 1.75-1.75V93a1.75 1.75 0 0 0-3.5 0v17.5c0 .966.783 1.75 1.75 1.75ZM52.5 124.5a1.75 1.75 0 1 0 .001-3.499 1.75 1.75 0 0 0 0 3.499ZM52.5 117.739a1.75 1.75 0 1 0-.001-3.501 1.75 1.75 0 0 0 .001 3.501ZM52.5 112.25a1.75 1.75 0 0 0 1.75-1.75V93a1.75 1.75 0 0 0-3.5 0v17.5c0 .966.784 1.75 1.75 1.75ZM59.502 124.5a1.75 1.75 0 1 0 0-3.499 1.75 1.75 0 0 0 0 3.499ZM59.502 117.738a1.75 1.75 0 1 0 0-3.5 1.75 1.75 0 0 0 0 3.5ZM59.502 112.25a1.75 1.75 0 0 0 1.75-1.75V93a1.75 1.75 0 0 0-3.5 0v17.5c0 .966.783 1.75 1.75 1.75ZM66.502 124.5a1.75 1.75 0 1 0 0-3.499 1.75 1.75 0 0 0 0 3.499ZM66.502 117.739a1.75 1.75 0 1 0-.001-3.501 1.75 1.75 0 0 0 .001 3.501ZM66.502 112.25a1.75 1.75 0 0 0 1.75-1.75V93a1.75 1.75 0 0 0-3.5 0v17.5c0 .966.784 1.75 1.75 1.75ZM73.502 124.5a1.75 1.75 0 1 0 .001-3.499 1.75 1.75 0 0 0 0 3.499ZM73.502 117.739a1.75 1.75 0 1 0-.001-3.5 1.75 1.75 0 0 0 .001 3.5ZM73.502 112.25a1.75 1.75 0 0 0 1.75-1.75V93a1.75 1.75 0 0 0-3.5 0v17.5c0 .966.783 1.75 1.75 1.75ZM80.502 124.5a1.75 1.75 0 1 0 0-3.499 1.75 1.75 0 0 0 0 3.499ZM80.502 117.739a1.75 1.75 0 1 0-.001-3.501 1.75 1.75 0 0 0 .001 3.501ZM80.502 112.25a1.75 1.75 0 0 0 1.75-1.75V93a1.75 1.75 0 0 0-3.5 0v17.5c0 .966.784 1.75 1.75 1.75ZM87.498 124.5a1.75 1.75 0 1 0 .001-3.499 1.75 1.75 0 0 0 0 3.499ZM87.498 117.739a1.75 1.75 0 1 0 0-3.5 1.75 1.75 0 0 0 0 3.5ZM87.504 112.25a1.75 1.75 0 0 0 1.75-1.75V93a1.75 1.75 0 0 0-3.5 0v17.5c0 .966.783 1.75 1.75 1.75ZM94.498 124.5a1.75 1.75 0 1 0 .001-3.499 1.75 1.75 0 0 0 0 3.499ZM94.498 117.739a1.75 1.75 0 1 0-.001-3.501 1.75 1.75 0 0 0 .001 3.501ZM94.498 112.25a1.75 1.75 0 0 0 1.75-1.75V93a1.75 1.75 0 0 0-3.5 0v17.5c0 .966.784 1.75 1.75 1.75ZM101.498 124.5a1.75 1.75 0 1 0 .002-3.498 1.75 1.75 0 0 0-.002 3.498ZM101.498 117.739a1.75 1.75 0 1 0 0-3.5 1.75 1.75 0 0 0 0 3.5ZM101.498 112.25a1.75 1.75 0 0 0 1.75-1.75V93a1.75 1.75 0 0 0-3.5 0v17.5c0 .966.784 1.75 1.75 1.75ZM108.498 124.5a1.75 1.75 0 1 0 .002-3.498 1.75 1.75 0 0 0-.002 3.498ZM108.498 117.739a1.75 1.75 0 1 0 0-3.5 1.75 1.75 0 0 0 0 3.5ZM108.498 112.25a1.75 1.75 0 0 0 1.75-1.75V93a1.75 1.75 0 0 0-3.5 0v17.5c0 .966.784 1.75 1.75 1.75ZM115.5 124.5a1.75 1.75 0 1 0 0-3.5 1.75 1.75 0 0 0 0 3.5ZM115.5 117.739a1.75 1.75 0 1 0-.002-3.502 1.75 1.75 0 0 0 .002 3.502ZM115.5 112.25a1.75 1.75 0 0 0 1.75-1.75V93a1.75 1.75 0 0 0-3.5 0v17.5c0 .966.784 1.75 1.75 1.75ZM122.5 124.5a1.75 1.75 0 1 0 0-3.5 1.75 1.75 0 0 0 0 3.5ZM122.5 117.739a1.75 1.75 0 1 0-.002-3.502 1.75 1.75 0 0 0 .002 3.502ZM122.5 112.25a1.75 1.75 0 0 0 1.75-1.75V93a1.75 1.75 0 0 0-3.5 0v17.5c0 .966.783 1.75 1.75 1.75Z"></path>
  </g>
  <defs>
    <clipPath id="clip0_2949_536">
      <path fill="#fff" d="M0 0h140v140H0z"></path>
    </clipPath>
  </defs>
</svg>
