<svg id="te-66dc5111-116aae48-b00f7660" data-name="Layer 2" xmlns="http://www.w3.org/2000/svg"
  viewBox="0 0 49.606 49.606">
  <g id="b8cb6c334bc12294__artwork" fill="#272727">
    <path fill="none"
      d="m30.148 22.964 2.48-2.48-2.48-2.48v4.96zM20.17 18.004l-2.48 2.48 2.48 2.48v-4.96z"></path>
    <g class="f">
      <path d="m30.148 22.964 2.48-2.48-2.48-2.48v4.96zM20.17 22.964v-4.96l-2.48 2.48 2.48 2.48z"></path>
      <path
        d="M0 0v49.606h49.606V0H0Zm24.804 46.535h-4V36.51h4v10.026Zm0-10.769H20.17v-7.84l-4.258-4.961a3.507 3.507 0 0 1 0-4.96l7.344-6.707 1.548 1.175v23.293Zm-.317-26.08a3.105 3.105 0 0 1-2.436-2.435 3.105 3.105 0 0 1 3.65-3.65 3.105 3.105 0 0 1 2.436 2.436 3.105 3.105 0 0 1-3.65 3.65Zm5.028 36.85h-4.002V36.508h4.001v10.026Zm4.89-23.572-4.257 4.961v7.841h-4.635V12.473l1.549-1.176 7.344 6.707a3.507 3.507 0 0 1 0 4.96ZM46.064 10.63H42.52v3.543h-3.544V10.63h-3.543V7.087h3.543V3.543h3.544v3.544h3.543v3.543Z"></path>
    </g>
  </g>
</svg>
