<svg fill="none" xmlns="http://www.w3.org/2000/svg" viewBox="0 0 57 57" id="te-f6b49684-9c53808f-eac3b2b0"><g clip-path="url(#clip0_6_39)"><path d="M56.693 0H0v56.693h56.693V0Z" fill="#272727"></path><path d="m30.923 28.08 7.971 4.505 1.854-3.18-6.573-3.644-1.66-7.766-4.387-2.463-8.234 14.808.207 8.97-6.785 13.819 4.883-.04 6.237-12.766v-4.227l2.389 4.255.055.351-2.934 4.07 1.12.806 2.119-2.939 1.649 10.49 4.444.02-2.297-14.203-.507-.87 4.466-6.195-1.12-.806-4.105 5.695-3.636-6.249 3.917-6.857.927 4.415ZM23.157 12.898l-6.225 11.174 4.194 2.336 6.225-11.173-4.194-2.337ZM36.35 11.759a3.543 3.543 0 1 0-7.087 0 3.543 3.543 0 0 0 7.086 0Z" fill="#E5E5E5"></path></g><defs><clipPath id="clip0_6_39"><path fill="#fff" d="M0 0h56.693v56.693H0z"></path></clipPath></defs></svg>
