<svg fill="none" xmlns="http://www.w3.org/2000/svg" viewBox="0 0 57 57"
  id="te-5341d5d8-ff6dc5fa-0d1b5fad">
  <g clip-path="url(#clip0_1_188)">
    <path d="M56.693 0H0v56.693h56.693V0Z" fill="#272727"></path>
    <path
      d="M28.763 15.174 15.591 28.346a4.009 4.009 0 0 0 5.669 0l8.504-8.504v12.756h9.921l5.67-5.67a4.008 4.008 0 0 0 0-5.668l-6.195-6.195a3.046 3.046 0 0 0-2.154-.892h-5.827c-.906 0-1.775.36-2.416 1Zm10.922 6.086 2.835 2.834-2.835 2.835v-5.67ZM34.724 12.402a3.543 3.543 0 1 0 0-7.087 3.543 3.543 0 0 0 0 7.087ZM3.543 53.15H53.15V33.66H3.543V53.15Zm20.685-3.544a.709.709 0 1 1 0-1.417.709.709 0 0 1 0 1.417Zm2.79 0a.709.709 0 1 1 0-1.417.709.709 0 0 1 0 1.417Zm16.919-13.464a7.087 7.087 0 1 1 0 14.173 7.087 7.087 0 0 1 0-14.173Zm-11.98.708a.708.708 0 1 1 1.417 0v7.087a.709.709 0 1 1-1.417 0V36.85Zm.642 8.6a.709.709 0 1 1-.001 1.418.709.709 0 0 1 0-1.417Zm0 2.739a.709.709 0 1 1 0 1.417.709.709 0 0 1 0-1.417ZM29.122 36.85a.709.709 0 0 1 1.417 0v7.087a.709.709 0 1 1-1.417 0V36.85Zm.686 8.6a.709.709 0 1 1 0 1.418.709.709 0 0 1 0-1.417Zm0 2.739a.708.708 0 1 1 0 1.417.708.708 0 0 1 0-1.417Zm-2.79-1.321a.709.709 0 1 1 0-1.417.709.709 0 0 1 0 1.417Zm-.73-10.018a.708.708 0 1 1 1.416 0v7.087a.709.709 0 1 1-1.417 0V36.85Zm-2.06 10.018a.709.709 0 1 1 0-1.417.709.709 0 0 1 0 1.417Zm-.776-10.018a.709.709 0 0 1 1.418 0v7.087a.709.709 0 1 1-1.418 0V36.85Zm-10.696-.708a7.087 7.087 0 1 1 0 14.173 7.087 7.087 0 0 1 0-14.173Zm31.199 9.92a2.835 2.835 0 1 0 0-5.668 2.835 2.835 0 0 0 0 5.669Zm-31.199 0a2.835 2.835 0 1 0 0-5.668 2.835 2.835 0 0 0 0 5.669Z"
      fill="#E5E5E5"></path>
  </g>
  <defs>
    <clipPath id="clip0_1_188">
      <path fill="#fff" d="M0 0h56.693v56.693H0z"></path>
    </clipPath>
  </defs>
</svg>
