<svg width="100%" height="100%" viewBox="0 0 1775 1673" version="1.1"
  xmlns="http://www.w3.org/2000/svg" xmlns:xlink="http://www.w3.org/1999/xlink" xml:space="preserve"
  xmlns:serif="http://www.serif.com/"
  style="fill-rule:evenodd;clip-rule:evenodd;stroke-linejoin:round;stroke-miterlimit:2;">
    <g transform="matrix(1,0,0,1,311.59,726.875)">
        <path d="M0,-248.535C-52.157,-248.535 -94.588,-206.101 -94.588,-153.947L-94.588,0L-50.854,0L-50.854,-153.947C-50.854,-181.988 -28.041,-204.801 0,-204.801C28.041,-204.801 50.857,-181.988 50.857,-153.947C50.857,-141.891 60.668,-132.08 72.724,-132.08C84.78,-132.08 94.591,-141.891 94.591,-153.947C94.591,-206.101 52.157,-248.535 0,-248.535" style="fill:white;fill-rule:nonzero;"/>
    </g>
    <g transform="matrix(1,0,0,1,1536.02,726.875)">
        <path d="M0,-84.67C-12.056,-84.67 -21.867,-74.859 -21.867,-62.803L-21.867,0L21.931,0L21.931,-62.803C21.931,-74.859 12.093,-84.67 0,-84.67" style="fill:white;fill-rule:nonzero;"/>
    </g>
    <g transform="matrix(1,0,0,1,602.423,726.875)">
        <path d="M0,-452.852C-52.157,-452.852 -94.591,-410.418 -94.591,-358.258L-94.591,0L-50.796,0L-50.796,-358.258C-50.796,-386.269 -28.008,-409.057 0,-409.057C28.041,-409.057 50.854,-386.269 50.854,-358.258C50.854,-346.202 60.665,-336.391 72.721,-336.391C84.814,-336.391 94.652,-346.202 94.652,-358.258C94.652,-410.418 52.19,-452.852 0,-452.852" style="fill:white;fill-rule:nonzero;"/>
    </g>
    <g transform="matrix(1,0,0,1,384.315,726.875)">
        <path d="M0,-85.784C-12.056,-85.784 -21.867,-75.973 -21.867,-63.917L-21.867,0L21.867,0L21.867,-63.917C21.867,-75.973 12.056,-85.784 0,-85.784" style="fill:white;fill-rule:nonzero;"/>
    </g>
    <g transform="matrix(1,0,0,1,675.144,726.875)">
        <path d="M0,-290.1C-12.056,-290.1 -21.867,-280.259 -21.867,-268.166L-21.867,0L21.931,0L21.931,-268.166C21.931,-280.259 12.093,-290.1 0,-290.1" style="fill:white;fill-rule:nonzero;"/>
    </g>
    <g transform="matrix(1,0,0,1,893.316,726.875)">
        <path d="M0,-303.407C-52.157,-303.407 -94.591,-260.973 -94.591,-208.813L-94.591,0L-50.857,0L-50.857,-208.813C-50.857,-236.818 -28.042,-259.606 0,-259.606C28.008,-259.606 50.793,-236.818 50.793,-208.813C50.793,-196.72 60.631,-186.885 72.721,-186.885C84.777,-186.885 94.588,-196.72 94.588,-208.813C94.588,-260.973 52.157,-303.407 0,-303.407" style="fill:white;fill-rule:nonzero;"/>
    </g>
    <g transform="matrix(1,0,0,1,966.037,726.875)">
        <path d="M0,-140.649C-12.09,-140.649 -21.928,-130.838 -21.928,-118.782L-21.928,0L21.867,0L21.867,-118.782C21.867,-130.838 12.056,-140.649 0,-140.649" style="fill:white;fill-rule:nonzero;"/>
    </g>
    <g transform="matrix(1,0,0,1,1184.21,726.875)">
        <path d="M0,-726.875C-52.19,-726.875 -94.652,-684.441 -94.652,-632.284L-94.652,0L-50.854,0L-50.854,-632.284C-50.854,-660.292 -28.041,-683.077 0,-683.077C28.008,-683.077 50.796,-660.292 50.796,-632.284C50.796,-620.228 60.607,-610.417 72.663,-610.417C84.753,-610.417 94.591,-620.228 94.591,-632.284C94.591,-684.441 52.157,-726.875 0,-726.875" style="fill:white;fill-rule:nonzero;"/>
    </g>
    <g transform="matrix(1,0,0,1,1514.15,632.282)">
        <path d="M0,-58.24C0,-46.184 9.811,-36.373 21.867,-36.373C33.96,-36.373 43.798,-46.184 43.798,-58.24C43.798,-110.4 1.364,-152.834 -50.793,-152.834C-102.984,-152.834 -145.445,-110.4 -145.445,-58.24L-145.445,94.594L-101.65,94.594L-101.65,-58.24C-101.65,-86.245 -78.835,-109.033 -50.793,-109.033C-22.785,-109.033 0,-86.245 0,-58.24" style="fill:white;fill-rule:nonzero;"/>
    </g>
    <g transform="matrix(1,0,0,1,1256.87,726.876)">
        <path d="M0,-564.121C-12.056,-564.121 -21.867,-554.31 -21.867,-542.254L-21.867,0L21.928,0L21.928,-542.254C21.928,-554.31 12.09,-564.121 0,-564.121" style="fill:white;fill-rule:nonzero;"/>
    </g>
    <g transform="matrix(1,0,0,1,238.869,1152.84)">
        <path d="M0,63.409C12.056,63.409 21.867,53.568 21.867,41.475L21.867,0L-21.867,0L-21.867,41.475C-21.867,53.568 -12.056,63.409 0,63.409" style="fill:white;fill-rule:nonzero;"/>
    </g>
    <g transform="matrix(1,0,0,1,1133.35,1247.43)">
        <path d="M0,68.802C0,56.709 -9.838,46.868 -21.931,46.868C-33.987,46.868 -43.798,56.709 -43.798,68.802C-43.798,120.956 -1.364,163.39 50.793,163.39C102.95,163.39 145.384,120.956 145.384,68.802L145.384,-94.588L101.65,-94.588L101.65,68.802C101.65,96.807 78.835,119.595 50.793,119.595C22.785,119.595 0,96.807 0,68.802" style="fill:white;fill-rule:nonzero;"/>
    </g>
    <g transform="matrix(1,0,0,1,1412.5,1247.5)">
        <path d="M0,162.573C0,150.517 -9.811,140.706 -21.867,140.706C-33.957,140.706 -43.795,150.517 -43.795,162.573C-43.795,214.763 -1.36,257.228 50.796,257.228C102.987,257.228 145.448,214.763 145.448,162.573L145.448,-94.655L101.65,-94.655L101.65,162.573C101.65,190.614 78.838,213.433 50.796,213.433C22.788,213.433 0,190.614 0,162.573" style="fill:white;fill-rule:nonzero;"/>
    </g>
    <g transform="matrix(1,0,0,1,1390.63,1152.84)">
        <path d="M0,189.064C12.056,189.064 21.867,179.253 21.867,167.197L21.867,0L-21.928,0L-21.928,167.197C-21.928,179.253 -12.09,189.064 0,189.064" style="fill:white;fill-rule:nonzero;"/>
    </g>
    <g transform="matrix(1,0,0,1,1111.42,1152.84)">
        <path d="M0,95.165C12.093,95.165 21.931,85.354 21.931,73.298L21.931,0L-21.867,0L-21.867,73.298C-21.867,85.354 -12.056,95.165 0,95.165" style="fill:white;fill-rule:nonzero;"/>
    </g>
    <g transform="matrix(1,0,0,1,842.459,1247.5)">
        <path d="M0,330.699C0,318.643 -9.811,308.832 -21.867,308.832C-33.923,308.832 -43.734,318.643 -43.734,330.699C-43.734,382.889 -1.3,425.354 50.857,425.354C103.014,425.354 145.445,382.889 145.445,330.699L145.445,-94.655L101.65,-94.655L101.65,330.699C101.65,358.74 78.865,381.553 50.857,381.553C22.816,381.553 0,358.74 0,330.699" style="fill:white;fill-rule:nonzero;"/>
    </g>
    <g transform="matrix(1,0,0,1,820.592,1152.84)">
        <path d="M0,357.252C12.056,357.252 21.867,347.441 21.867,335.385L21.867,0L-21.867,0L-21.867,335.385C-21.867,347.441 -12.056,357.252 0,357.252" style="fill:white;fill-rule:nonzero;"/>
    </g>
    <g transform="matrix(1,0,0,1,551.627,1247.43)">
        <path d="M0,96.727C0,84.671 -9.838,74.86 -21.928,74.86C-33.984,74.86 -43.795,84.671 -43.795,96.727C-43.795,148.881 -1.361,191.315 50.796,191.315C102.953,191.315 145.384,148.881 145.384,96.727L145.384,-94.588L101.65,-94.588L101.65,96.727C101.65,124.768 78.838,147.581 50.796,147.581C22.788,147.581 0,124.768 0,96.727" style="fill:white;fill-rule:nonzero;"/>
    </g>
    <g transform="matrix(1,0,0,1,260.736,1247.5)">
        <path d="M0,36.85C0,24.794 -9.811,14.983 -21.867,14.983C-33.923,14.983 -43.734,24.794 -43.734,36.85C-43.734,89.04 -1.303,131.505 50.854,131.505C103.011,131.505 145.445,89.04 145.445,36.85L145.445,-94.655L101.647,-94.655L101.647,36.85C101.647,64.892 78.862,87.71 50.854,87.71C22.813,87.71 0,64.892 0,36.85" style="fill:white;fill-rule:nonzero;"/>
    </g>
    <g transform="matrix(1,0,0,1,529.699,1152.84)">
        <path d="M0,123.152C12.09,123.152 21.928,113.341 21.928,101.285L21.928,0L-21.867,0L-21.867,101.285C-21.867,113.341 -12.056,123.152 0,123.152" style="fill:white;fill-rule:nonzero;"/>
    </g>
    <g transform="matrix(1,0,0,1,796.212,1106.14)">
        <path d="M0,-332.147L-81.151,-332.147L-81.151,0L130.136,0L163.183,-73.652L0,-73.652L0,-332.147Z" style="fill:white;fill-rule:nonzero;"/>
    </g>
    <g transform="matrix(1,0,0,1,508.858,1106.14)">
        <path d="M0,-332.147C-25.713,-332.147 -49.13,-316.986 -59.652,-293.527L-191.327,0L-104.551,0L-99.849,-11.406L-97.528,-17.439L-0.196,-250.758L72.538,-73.652L-68.894,-73.652L-36.065,0L190.49,0L59.72,-293.382C49.223,-316.931 25.785,-332.147 0,-332.147" style="fill:white;fill-rule:nonzero;"/>
    </g>
    <g transform="matrix(1,0,0,1,318.105,907.922)">
        <path d="M0,137.908L0,0L-158.421,0L-158.421,65.697L-69.447,65.697L-69.447,137.908L0,137.908Z" style="fill:white;fill-rule:nonzero;"/>
    </g>
    <g transform="matrix(1,0,0,1,176.847,836.412)">
        <path d="M0,206.841C-19.195,206.841 -36.311,202.53 -50.881,194.027C-65.425,185.546 -76.802,173.399 -84.693,157.924C-92.613,142.398 -96.631,124.138 -96.631,103.655C-96.631,71.93 -87.618,46.52 -69.847,28.136C-52.097,9.779 -27.494,0.468 3.278,0.468C17.597,0.468 31.741,3.253 45.312,8.741C58.865,14.222 70.833,22.095 80.879,32.141L82.41,33.672L131.841,-15.254L130.345,-16.801C113.058,-34.712 93.833,-48.27 73.205,-57.096C52.565,-65.914 29.195,-70.382 3.746,-70.382C-31.427,-70.382 -63.044,-62.967 -90.237,-48.347C-117.475,-33.705 -138.954,-12.941 -154.08,13.363C-169.186,39.649 -176.847,70.03 -176.847,103.655C-176.847,138.21 -169.589,168.974 -155.271,195.082C-140.939,221.241 -120.32,241.698 -93.986,255.89C-67.73,270.047 -36.737,277.223 -1.875,277.223C6.904,277.223 15.641,276.773 24.089,275.888L26.04,275.684L26.04,204.694L23.523,205.089C16.164,206.25 8.248,206.841 0,206.841" style="fill:white;fill-rule:nonzero;"/>
    </g>
    <g transform="matrix(1,0,0,1,1351.56,1011.75)">
        <path d="M0,94.437L91.291,94.437L151.449,0L60.156,0L0,94.437Z" style="fill:white;fill-rule:nonzero;"/>
    </g>
    <g transform="matrix(1,0,0,1,1654.45,1106.19)">
        <path d="M0,-332.194L-91.287,-332.194L-151.44,-237.753L-211.598,-332.194L-302.889,-332.194L-161.227,-109.798L-151.44,-94.437L-91.287,0L0,0L-105.797,-166.095L0,-332.194Z" style="fill:white;fill-rule:nonzero;"/>
    </g>
    <g transform="matrix(1,0,0,1,1014.96,791.322)">
        <path d="M0,192.268L133.856,69.566L136.153,64.061L137.167,66.531L192.946,15.401C189.6,9.604 185.431,4.432 180.616,0L20.346,146.913L0,192.268Z" style="fill:white;fill-rule:nonzero;"/>
    </g>
    <g transform="matrix(0.737159,-0.675719,-0.675719,-0.737159,1111.56,936.69)">
        <path d="M-26.969,63.442L157.699,63.442C155.623,70.447 152.39,77.111 148.051,83.126L18.668,83.125L-26.969,63.442Z" style="fill:white;fill-rule:nonzero;"/>
    </g>
    <g transform="matrix(0.737157,-0.675722,-0.675722,-0.737157,1196.46,897.969)">
        <path d="M-17.943,25.875L59.261,25.875L66.146,46.469L-10.372,46.468L-17.943,25.875Z" style="fill:white;fill-rule:nonzero;"/>
    </g>
    <g transform="matrix(1,0,0,1,1146.51,832.712)">
        <path d="M0,-58.541C-23.793,-56.785 -44.984,-42.087 -54.847,-20.099L-63.863,0L0,-58.541Z" style="fill:white;fill-rule:nonzero;"/>
    </g>
    <g transform="matrix(1,0,0,1,1228.27,1106.14)">
        <path d="M0,-254.712L-57.231,-202.25L-4.419,-73.652L-145.851,-73.652L-113.022,0L113.533,0L0,-254.712Z" style="fill:white;fill-rule:nonzero;"/>
    </g>
    <g transform="matrix(1,0,0,1,1136.85,1061.12)">
        <path d="M0,-171.552L-134.282,-48.46L-134.719,-48.937L-156.671,0L-18.87,-126.317L0,-171.552Z" style="fill:white;fill-rule:nonzero;"/>
    </g>
    <g transform="matrix(1,0,0,1,966.686,978.421)">
        <path d="M0,112.79L-6.697,127.719L80.075,127.719L84.777,116.312L87.099,110.28L139.331,-14.929L0,112.79Z" style="fill:white;fill-rule:nonzero;"/>
    </g>
    <g transform="matrix(-0.737156,0.675723,0.675723,0.737156,1738.58,1105.53)">
        <path d="M-104.642,-60.39L5.445,-60.39L23.491,-40.704L-86.597,-40.705L-104.642,-60.39Z" style="fill:white;fill-rule:nonzero;"/>
    </g>
    <g transform="matrix(0.737165,-0.675713,-0.675713,-0.737165,1753.84,1102.49)">
        <path d="M-21.9,15.114L42.442,15.114L61.321,35.709L-44.366,35.707L-21.9,15.114Z" style="fill:white;fill-rule:nonzero;"/>
    </g>
    <g transform="matrix(0,1,1,0,1710.49,955.86)">
        <path d="M64.418,-16.732L91.122,-16.732L16.733,64.418L-9.971,64.418L64.418,-16.732Z" style="fill:white;fill-rule:nonzero;"/>
    </g>
    <g transform="matrix(1,0,0,1,1746.81,1080.38)">
        <path d="M0,25.762L28.105,25.762L28.105,0L0,25.762Z" style="fill:white;fill-rule:nonzero;"/>
    </g>
    <g transform="matrix(0,-1,-1,0,1774.23,847.702)">
        <path d="M-80.471,-0.68L73.709,-0.68L73.709,80.471L-154.86,80.471L-80.471,-0.68Z" style="fill:white;fill-rule:nonzero;"/>
    </g>
</svg>
